<svg width="48" height="48" viewBox="0 0 48 48" fill="none" xmlns="http://www.w3.org/2000/svg">
<g clip-path="url(#clip0_39_391)">
<path d="M35.4898 12.5277C34.8094 11.8474 33.7105 11.8474 33.0301 12.5277L24.5 21.0404L15.9699 12.5102C15.2895 11.8299 14.1906 11.8299 13.5102 12.5102C12.8299 13.1906 12.8299 14.2895 13.5102 14.9699L22.0404 23.5L13.5102 32.0301C12.8299 32.7105 12.8299 33.8094 13.5102 34.4898C14.1906 35.1701 15.2895 35.1701 15.9699 34.4898L24.5 25.9596L33.0301 34.4898C33.7105 35.1701 34.8094 35.1701 35.4898 34.4898C36.1701 33.8094 36.1701 32.7105 35.4898 32.0301L26.9596 23.5L35.4898 14.9699C36.1526 14.307 36.1526 13.1906 35.4898 12.5277Z" fill="#512314"/>
</g>
<defs>
<clipPath id="clip0_39_391">
<rect width="48" height="48" fill="white"/>
</clipPath>
</defs>
</svg>
